<?xml version="1.0" encoding="UTF-8" standalone="no"?>
<svg
   xmlns:dc="http://purl.org/dc/elements/1.1/"
   xmlns:cc="http://creativecommons.org/ns#"
   xmlns:rdf="http://www.w3.org/1999/02/22-rdf-syntax-ns#"
   xmlns:svg="http://www.w3.org/2000/svg"
   xmlns="http://www.w3.org/2000/svg"
   xmlns:xlink="http://www.w3.org/1999/xlink"
   xmlns:sodipodi="http://sodipodi.sourceforge.net/DTD/sodipodi-0.dtd"
   xmlns:inkscape="http://www.inkscape.org/namespaces/inkscape"
   version="1.1"
   width="16"
   height="16"
   id="svg4288"
   sodipodi:docname="playlist-symbolic.svg"
   inkscape:version="0.92.3 (2405546, 2018-03-11)">
  <sodipodi:namedview
     pagecolor="#ffffff"
     bordercolor="#666666"
     borderopacity="1"
     objecttolerance="10"
     gridtolerance="10"
     guidetolerance="10"
     inkscape:pageopacity="0"
     inkscape:pageshadow="2"
     inkscape:window-width="2027"
     inkscape:window-height="1145"
     id="namedview16"
     showgrid="false"
     inkscape:zoom="64"
     inkscape:cx="10.366706"
     inkscape:cy="4.0970365"
     inkscape:window-x="699"
     inkscape:window-y="168"
     inkscape:window-maximized="0"
     inkscape:current-layer="svg4288" />
  <defs
     id="defs4290">
    <radialGradient
       cx="17.058823"
       cy="41.058823"
       r="5.7384715"
       fx="15.544384"
       fy="39.027378"
       id="radialGradient3060"
       xlink:href="#linearGradient7067-814-120-245"
       gradientUnits="userSpaceOnUse"
       gradientTransform="matrix(0.28331064,0.05167803,-0.0986092,0.24869207,9.726617,1.8814102)" />
    <linearGradient
       id="linearGradient7067-814-120-245">
      <stop
         id="stop3877"
         style="stop-color:#aaaaaa;stop-opacity:1"
         offset="0" />
      <stop
         id="stop3879"
         style="stop-color:#4d4d4d;stop-opacity:1"
         offset="1" />
    </linearGradient>
  </defs>
  <metadata
     id="metadata4293">
    <rdf:RDF>
      <cc:Work
         rdf:about="">
        <dc:format>image/svg+xml</dc:format>
        <dc:type
           rdf:resource="http://purl.org/dc/dcmitype/StillImage" />
        <dc:title />
      </cc:Work>
    </rdf:RDF>
  </metadata>
  <g
     id="g825">
    <path
       sodipodi:nodetypes="ccsaazccccccccccc"
       d="m 12,1 c 0.03821,3.5855201 0,10 0,10 C 11.54129,10.7598 10.491374,10.672352 9.817949,10.6875 9.0492355,10.704791 8.1167038,11.048702 7.78125,11.734375 7.4435408,12.424658 7.6566131,13.464336 8.2076147,14 8.9681421,14.739357 10.318448,14.76807 11.350138,14.5 12.381828,14.23193 12.91503,13.509581 13,12.910411 V 4.3791603 c 0.768074,0.7520079 1.494811,1.50614 1.5,2.40625 0.0096,0.71242 -0.05261,1.413991 -0.33483,2.0625 -0.03802,0.07829 0.06402,0.157787 0.125,0.1875 0.163429,0.04561 0.617467,-0.180375 0.70983,-0.28125 0.983615,-1.318786 1.061656,-3.2355672 0,-4.53125 C 14.62323,3.7628022 13.756958,3.3510714 13.5,2.8166603 13.242743,2.4056176 13.235996,1.9393544 13,1.5 12.896187,1.3304713 12.696069,0.9984407 12.5,1 Z"
       id="path5541"
       style="color:#000000;display:inline;overflow:visible;visibility:visible;fill:#666666;fill-opacity:1;fill-rule:nonzero;stroke:none;stroke-width:1;stroke-linejoin:round;stroke-miterlimit:4;stroke-dasharray:none;stroke-opacity:1;marker:none;enable-background:accumulate"
       inkscape:connector-curvature="0" />
  </g>
  <rect
     style="fill:#666666;fill-opacity:1;stroke:none;stroke-width:0.81042731"
     id="rect831"
     width="7.9999928"
     height="1"
     x="2.9999995"
     y="2" />
  <rect
     style="fill:#666666;fill-opacity:1;stroke:none;stroke-width:0.81042749"
     id="rect831-3"
     width="7.9999976"
     height="1"
     x="3"
     y="5" />
  <rect
     style="fill:#666666;fill-opacity:1;stroke:none;stroke-width:0.81042731"
     id="rect831-6"
     width="8"
     height="1"
     x="3"
     y="8" />
  <rect
     style="fill:#666666;fill-opacity:1;stroke:none;stroke-width:0.57305866"
     id="rect831-7"
     width="4.0000005"
     height="1"
     x="3"
     y="11" />
  <rect
     y="2"
     x="1"
     height="1"
     width="1"
     id="rect862"
     style="fill:#666666;fill-opacity:1;stroke:none;stroke-width:0.2865293" />
  <rect
     y="5"
     x="1"
     height="1"
     width="1"
     id="rect862-5"
     style="fill:#666666;fill-opacity:1;stroke:none;stroke-width:0.2865293" />
  <rect
     y="8"
     x="1"
     height="1"
     width="1"
     id="rect862-3"
     style="fill:#666666;fill-opacity:1;stroke:none;stroke-width:0.2865293" />
  <rect
     y="11"
     x="1"
     height="1"
     width="1"
     id="rect862-56"
     style="fill:#666666;fill-opacity:1;stroke:none;stroke-width:0.2865293" />
</svg>
