<svg xmlns="http://www.w3.org/2000/svg" xmlns:xlink="http://www.w3.org/1999/xlink" width="24" height="24" version="1.1" viewBox="0 0 24 24">
 <defs>
  <radialGradient id="radialGradient4214" cx="24" cy="-4.5" r="20" fx="24" fy="-4.5" gradientTransform="matrix(1,0,0,0.7,8.7243652e-7,8.15)" gradientUnits="userSpaceOnUse" xlink:href="#linearGradient4208"/>
  <linearGradient id="linearGradient4208">
   <stop style="stop-color:#ffffff;stop-opacity:0.25098041" offset="0"/>
   <stop style="stop-color:#ffffff;stop-opacity:0" offset="1"/>
  </linearGradient>
  <linearGradient id="linearGradient5397" x1="24" x2="24" y1="5" y2="43" gradientTransform="matrix(0.45945947,0,0,0.45945947,0.97296959,24.972977)" gradientUnits="userSpaceOnUse" xlink:href="#linearGradient3924-64"/>
  <linearGradient id="linearGradient3924-64">
   <stop style="stop-color:#ffffff;stop-opacity:1" offset="0"/>
   <stop style="stop-color:#ffffff;stop-opacity:0.23529412" offset=".063"/>
   <stop style="stop-color:#ffffff;stop-opacity:0.15686275" offset=".951"/>
   <stop style="stop-color:#ffffff;stop-opacity:0.39215687" offset="1"/>
  </linearGradient>
  <radialGradient id="radialGradient3082-6" cx="4.993" cy="43.5" r="2.5" fx="4.993" fy="43.5" gradientTransform="matrix(2.003784,0,0,1.4,27.98813,-17.4)" gradientUnits="userSpaceOnUse" xlink:href="#linearGradient3688-166-749-9"/>
  <linearGradient id="linearGradient3688-166-749-9">
   <stop style="stop-color:#181818;stop-opacity:1" offset="0"/>
   <stop style="stop-color:#181818;stop-opacity:0" offset="1"/>
  </linearGradient>
  <radialGradient id="radialGradient3084-4" cx="4.993" cy="43.5" r="2.5" fx="4.993" fy="43.5" gradientTransform="matrix(2.003784,0,0,1.4,-20.01187,-104.4)" gradientUnits="userSpaceOnUse" xlink:href="#linearGradient3688-166-749-9"/>
  <linearGradient id="linearGradient3086-8" x1="25.058" x2="25.058" y1="47.028" y2="39.999" gradientUnits="userSpaceOnUse" xlink:href="#linearGradient3702-501-757-1"/>
  <linearGradient id="linearGradient3702-501-757-1">
   <stop style="stop-color:#181818;stop-opacity:0" offset="0"/>
   <stop style="stop-color:#181818;stop-opacity:1" offset=".5"/>
   <stop style="stop-color:#181818;stop-opacity:0" offset="1"/>
  </linearGradient>
  <linearGradient id="linearGradient4256">
   <stop style="stop-color:#278acc;stop-opacity:1" offset="0"/>
   <stop style="stop-color:#72cce5;stop-opacity:1" offset="1"/>
  </linearGradient>
  <linearGradient id="linearGradient4234" x1="13" x2="13" y1="21" y2="3" gradientTransform="translate(0,24)" gradientUnits="userSpaceOnUse" xlink:href="#linearGradient4256"/>
 </defs>
 <g style="display:inline" transform="translate(0,-24)">
  <g style="display:inline" transform="matrix(0.55,0,0,0.3333336,-1.2000011,31.33333)">
   <g style="opacity:0.4" transform="matrix(1.052632,0,0,1.285713,-1.263158,-13.42854)">
    <rect style="fill:url(#radialGradient3082-6);fill-opacity:1;stroke:none" width="5" height="7" x="38" y="40"/>
    <rect style="fill:url(#radialGradient3084-4);fill-opacity:1;stroke:none" width="5" height="7" x="-10" y="-47" transform="scale(-1,-1)"/>
    <rect style="fill:url(#linearGradient3086-8);fill-opacity:1;stroke:none" width="28" height="7" x="10" y="40"/>
   </g>
  </g>
  <path style="display:inline;opacity:1;fill:url(#linearGradient4234);fill-opacity:1;stroke:none;stroke-width:1;stroke-miterlimit:4;stroke-dasharray:none;stroke-opacity:0" d="m 3.5,26.5 c -0.5626486,0 -1,0.437351 -1,1 l 0,17 c 0,0.562649 0.4373514,1 1,1 l 17,0 c 0.562649,0 1,-0.437351 1,-1 l 0,-17 c 0,-0.562649 -0.437351,-1 -1,-1 l -17,0 z"/>
  <path style="color:#000000;font-style:normal;font-variant:normal;font-weight:normal;font-stretch:normal;font-size:medium;line-height:normal;font-family:sans-serif;text-indent:0;text-align:start;text-decoration:none;text-decoration-line:none;text-decoration-style:solid;text-decoration-color:#000000;letter-spacing:normal;word-spacing:normal;text-transform:none;direction:ltr;block-progression:tb;writing-mode:lr-tb;baseline-shift:baseline;text-anchor:start;white-space:normal;clip-rule:nonzero;display:inline;overflow:visible;visibility:visible;opacity:0.15;isolation:auto;mix-blend-mode:normal;color-interpolation:sRGB;color-interpolation-filters:linearRGB;solid-color:#000000;solid-opacity:1;fill:#000000;fill-opacity:1;fill-rule:evenodd;stroke:none;stroke-width:2;stroke-linecap:butt;stroke-linejoin:round;stroke-miterlimit:4;stroke-dasharray:none;stroke-dashoffset:0;stroke-opacity:1;color-rendering:auto;image-rendering:auto;shape-rendering:auto;text-rendering:auto;enable-background:accumulate" d="M 12 4 C 8.55676 4 6.289864 5.6899465 5.1875 7.4296875 C 4.1044757 9.1389055 4.0039063 10.871094 4.0039062 10.871094 C 4.0011363 10.915304 3.99983 10.959604 4 11.003906 L 4 12.105469 C 3.4522126 12.236857 3.0000582 12.668042 3 13.25 L 3 15.75 C 3.0000678 16.428435 3.5715651 16.999932 4.25 17 L 4.4785156 17 L 4.6328125 17.306641 C 4.8421982 17.727594 5.2759455 17.997735 5.7460938 18 A 1.0001 1.0001 0 0 0 5.75 18 L 6.4785156 18 L 6.6328125 18.306641 C 6.8421982 18.727594 7.2759455 18.997735 7.7460938 19 A 1.0001 1.0001 0 0 0 7.75 19 L 8.75 19 C 9.4284349 18.999932 9.9999322 18.428435 10 17.75 L 10 12.25 C 9.9999322 11.571565 9.4284349 11.000068 8.75 11 L 8.0234375 11 C 8.0310675 10.93516 8.0300475 10.894327 8.0859375 10.681641 C 8.1654445 10.379054 8.3113019 9.9698345 8.5644531 9.5703125 C 9.0996988 8.7255935 9.7285632 8 12 8 C 14.271444 8 14.900301 8.7255925 15.435547 9.5703125 C 15.688694 9.9698285 15.834555 10.379046 15.914062 10.681641 C 15.969952 10.894333 15.968793 10.933309 15.976562 11 L 15.25 11 C 14.571565 11.000068 14.000068 11.571565 14 12.25 L 14 17.75 C 14.000068 18.428435 14.571565 18.999932 15.25 19 L 16.25 19 A 1.0001 1.0001 0 0 0 16.253906 19 C 16.724054 18.9977 17.157801 18.727594 17.367188 18.306641 L 17.521484 18 L 18.25 18 A 1.0001 1.0001 0 0 0 18.253906 18 C 18.724054 17.9977 19.157801 17.727594 19.367188 17.306641 L 19.521484 17 L 19.75 17 C 20.428435 16.999932 20.999932 16.428435 21 15.75 L 21 13.25 C 20.999942 12.668042 20.547791 12.236857 20 12.105469 L 20 11.003906 L 20 11 C 20.00005 10.957 19.998794 10.91401 19.996094 10.871094 C 19.996094 10.871094 19.895522 9.1389055 18.8125 7.4296875 C 17.710236 5.6898625 15.443246 4 12 4 z" transform="translate(0,24)"/>
  <path style="color:#000000;font-style:normal;font-variant:normal;font-weight:normal;font-stretch:normal;font-size:medium;line-height:normal;font-family:sans-serif;text-indent:0;text-align:start;text-decoration:none;text-decoration-line:none;text-decoration-style:solid;text-decoration-color:#000000;letter-spacing:normal;word-spacing:normal;text-transform:none;direction:ltr;block-progression:tb;writing-mode:lr-tb;baseline-shift:baseline;text-anchor:start;white-space:normal;clip-rule:nonzero;display:inline;overflow:visible;visibility:visible;opacity:0.3;isolation:auto;mix-blend-mode:normal;color-interpolation:sRGB;color-interpolation-filters:linearRGB;solid-color:#000000;solid-opacity:1;fill:#000000;fill-opacity:1;fill-rule:evenodd;stroke:none;stroke-width:0.5;stroke-linecap:butt;stroke-linejoin:round;stroke-miterlimit:4;stroke-dasharray:none;stroke-dashoffset:0;stroke-opacity:1;color-rendering:auto;image-rendering:auto;shape-rendering:auto;text-rendering:auto;enable-background:accumulate" d="m 12,29 c -3.1260646,0 -5.0325018,1.487266 -5.96875,2.964844 -0.9362482,1.477578 -1.0292969,2.96875 -1.0292969,2.96875 A 1.0001,1.0001 0 0 0 5,35 l 0,2 -0.75,0 A 0.250025,0.250025 0 0 0 4,37.25 l 0,2.5 A 0.250025,0.250025 0 0 0 4.25,40 l 0.8457031,0 0.4316407,0.861328 A 0.250025,0.250025 0 0 0 5.75,41 l 1.3457031,0 0.4316407,0.861328 A 0.250025,0.250025 0 0 0 7.75,42 l 1,0 A 0.250025,0.250025 0 0 0 9,41.75 l 0,-5.5 A 0.250025,0.250025 0 0 0 8.75,36 l -1,0 A 0.250025,0.250025 0 0 0 7.5273438,36.138672 L 7.0957031,37 7,37 7,35.060547 c 4.34e-4,-0.0058 0.074699,-1.005872 0.7207031,-2.025391 C 8.3685634,32.012709 9.4624986,31 12,31 c 2.537508,0 3.631438,1.01271 4.279297,2.035156 C 16.9253,34.054674 16.999566,35.054789 17,35.060547 L 17,37 16.9043,37 16.472659,36.138672 A 0.250025,0.250025 0 0 0 16.25,36 l -1,0 A 0.250025,0.250025 0 0 0 15,36.25 l 0,5.5 A 0.250025,0.250025 0 0 0 15.25,42 l 1,0 a 0.250025,0.250025 0 0 0 0.222656,-0.138672 L 16.904297,41 18.25,41 a 0.250025,0.250025 0 0 0 0.222656,-0.138672 L 18.904297,40 19.75,40 A 0.250025,0.250025 0 0 0 20,39.75 l 0,-2.5 A 0.250025,0.250025 0 0 0 19.75,37 L 19,37 19,35 a 1.0001,1.0001 0 0 0 -0.002,-0.06641 c 0,0 -0.09305,-1.491171 -1.029297,-2.96875 C 17.032597,30.487273 15.12607,29 12,29 Z"/>
  <rect style="display:inline;opacity:0.65;fill:#ffffff;fill-opacity:1;stroke:#ffffff;stroke-width:0;stroke-linecap:round;stroke-linejoin:miter;stroke-miterlimit:4;stroke-dasharray:none;stroke-opacity:1" width="2" height="1" x="-7" y="41" rx="0" ry="0" transform="scale(-1,1)"/>
  <rect width="2" height="1" x="17" y="41" rx="0" ry="0" style="display:inline;opacity:0.65;fill:#ffffff;fill-opacity:1;stroke:#ffffff;stroke-width:0;stroke-linecap:round;stroke-linejoin:miter;stroke-miterlimit:4;stroke-dasharray:none;stroke-opacity:1"/>
  <rect width="2" height="1" x="-10" y="43" rx="0" ry="0" transform="scale(-1,1)" style="display:inline;opacity:0.9;fill:#ffffff;fill-opacity:1;stroke:#ffffff;stroke-width:0;stroke-linecap:round;stroke-linejoin:miter;stroke-miterlimit:4;stroke-dasharray:none;stroke-opacity:1"/>
  <rect width="2" height="1" x="-7" y="43" rx="0" ry="0" transform="scale(-1,1)" style="display:inline;opacity:0.9;fill:#ffffff;fill-opacity:1;stroke:#ffffff;stroke-width:0;stroke-linecap:round;stroke-linejoin:miter;stroke-miterlimit:4;stroke-dasharray:none;stroke-opacity:1"/>
  <path style="display:inline;opacity:1;fill:#ffffff;fill-opacity:1;fill-rule:evenodd;stroke:#ffffff;stroke-width:0.5;stroke-linecap:butt;stroke-linejoin:round;stroke-miterlimit:4;stroke-dasharray:none;stroke-opacity:1" d="m 4.25,36.25005 0,2.5 1,0 0.5,1 1.5,0 0.5,1 1,0 0,-5.5 -1,0 -0.5,1 z"/>
  <path style="display:inline;opacity:1;fill:none;fill-rule:evenodd;stroke:#ffffff;stroke-width:2;stroke-linecap:round;stroke-linejoin:round;stroke-miterlimit:4;stroke-dasharray:none;stroke-opacity:1" d="m 6,36.23935 0,-2.2393 C 6,34.00005 6.336434,29 12,29 c 5.663578,0 6,5.00005 6,5.00005 l 0,2.2393"/>
  <path d="m 19.75,36.25005 0,2.5 -1,0 -0.5,1 -1.5,0 -0.5,1 -1,0 0,-5.5 1,0 0.5,1 z" style="display:inline;opacity:1;fill:#ffffff;fill-opacity:1;fill-rule:evenodd;stroke:#ffffff;stroke-width:0.5;stroke-linecap:butt;stroke-linejoin:round;stroke-miterlimit:4;stroke-dasharray:none;stroke-opacity:1"/>
  <rect width="2" height="1" x="11" y="43" rx="0" ry="0" style="display:inline;opacity:0.9;fill:#ffffff;fill-opacity:1;stroke:#ffffff;stroke-width:0;stroke-linecap:round;stroke-linejoin:miter;stroke-miterlimit:4;stroke-dasharray:none;stroke-opacity:1"/>
  <rect style="display:inline;opacity:0.9;fill:#ffffff;fill-opacity:1;stroke:#ffffff;stroke-width:0;stroke-linecap:round;stroke-linejoin:miter;stroke-miterlimit:4;stroke-dasharray:none;stroke-opacity:1" width="2" height="1" x="14" y="43" rx="0" ry="0"/>
  <rect style="display:inline;opacity:0.9;fill:#ffffff;fill-opacity:1;stroke:#ffffff;stroke-width:0;stroke-linecap:round;stroke-linejoin:miter;stroke-miterlimit:4;stroke-dasharray:none;stroke-opacity:1" width="2" height="1" x="17" y="43" rx="0" ry="0"/>
  <rect style="display:inline;opacity:0.65;fill:#ffffff;fill-opacity:1;stroke:#ffffff;stroke-width:0;stroke-linecap:round;stroke-linejoin:miter;stroke-miterlimit:4;stroke-dasharray:none;stroke-opacity:1" width="2" height="1" x="11" y="41" rx="0" ry="0"/>
  <rect width="2" height="1" x="11" y="39" rx="0" ry="0" style="display:inline;opacity:0.4;fill:#ffffff;fill-opacity:1;stroke:#ffffff;stroke-width:0;stroke-linecap:round;stroke-linejoin:miter;stroke-miterlimit:4;stroke-dasharray:none;stroke-opacity:1"/>
  <rect style="color:#000000;display:inline;overflow:visible;visibility:visible;opacity:0.4;fill:none;fill-opacity:1;stroke:#003464;stroke-width:1;stroke-linecap:round;stroke-linejoin:round;stroke-miterlimit:4;stroke-dasharray:none;stroke-dashoffset:0;stroke-opacity:1;marker:none;enable-background:accumulate" width="19" height="19" x="2.5" y="26.5" rx="1" ry="1"/>
  <rect style="opacity:0.5;fill:none;stroke:url(#linearGradient5397);stroke-width:0.99999988;stroke-linecap:round;stroke-linejoin:round;stroke-miterlimit:4;stroke-dasharray:none;stroke-dashoffset:0;stroke-opacity:1" width="17" height="17" x="3.5" y="27.5"/>
 </g>
 <g style="display:none" transform="translate(0,-24)">
  <rect style="fill:url(#radialGradient4214);fill-opacity:1;fill-rule:evenodd;stroke:none;stroke-width:1px;stroke-linecap:butt;stroke-linejoin:miter;stroke-opacity:1" width="40" height="14" x="4" y="5" ry="2"/>
 </g>
</svg>
