<svg xmlns="http://www.w3.org/2000/svg" xmlns:xlink="http://www.w3.org/1999/xlink" width="24" height="24" version="1.1" viewBox="0 0 24 24">
 <defs>
  <radialGradient id="radialGradient4214" cx="24" cy="-4.5" r="20" fx="24" fy="-4.5" gradientTransform="matrix(1,0,0,0.7,8.7243652e-7,8.15)" gradientUnits="userSpaceOnUse" xlink:href="#linearGradient4208"/>
  <linearGradient id="linearGradient4208">
   <stop style="stop-color:#ffffff;stop-opacity:0.25098041" offset="0"/>
   <stop style="stop-color:#ffffff;stop-opacity:0" offset="1"/>
  </linearGradient>
  <linearGradient id="linearGradient5397" x1="24" x2="24" y1="5" y2="43" gradientTransform="matrix(0.45945947,0,0,0.45945947,0.97296959,0.972977)" gradientUnits="userSpaceOnUse" xlink:href="#linearGradient3924-64"/>
  <linearGradient id="linearGradient3924-64">
   <stop style="stop-color:#ffffff;stop-opacity:1" offset="0"/>
   <stop style="stop-color:#ffffff;stop-opacity:0.23529412" offset=".063"/>
   <stop style="stop-color:#ffffff;stop-opacity:0.15686275" offset=".951"/>
   <stop style="stop-color:#ffffff;stop-opacity:0.39215687" offset="1"/>
  </linearGradient>
  <radialGradient id="radialGradient3082-6" cx="4.993" cy="43.5" r="2.5" fx="4.993" fy="43.5" gradientTransform="matrix(2.003784,0,0,1.4,27.98813,-17.4)" gradientUnits="userSpaceOnUse" xlink:href="#linearGradient3688-166-749-9"/>
  <linearGradient id="linearGradient3688-166-749-9">
   <stop style="stop-color:#181818;stop-opacity:1" offset="0"/>
   <stop style="stop-color:#181818;stop-opacity:0" offset="1"/>
  </linearGradient>
  <radialGradient id="radialGradient3084-4" cx="4.993" cy="43.5" r="2.5" fx="4.993" fy="43.5" gradientTransform="matrix(2.003784,0,0,1.4,-20.01187,-104.4)" gradientUnits="userSpaceOnUse" xlink:href="#linearGradient3688-166-749-9"/>
  <linearGradient id="linearGradient3086-8" x1="25.058" x2="25.058" y1="47.028" y2="39.999" gradientUnits="userSpaceOnUse" xlink:href="#linearGradient3702-501-757-1"/>
  <linearGradient id="linearGradient3702-501-757-1">
   <stop style="stop-color:#181818;stop-opacity:0" offset="0"/>
   <stop style="stop-color:#181818;stop-opacity:1" offset=".5"/>
   <stop style="stop-color:#181818;stop-opacity:0" offset="1"/>
  </linearGradient>
  <linearGradient id="linearGradient4256">
   <stop style="stop-color:#1777ba;stop-opacity:1" offset="0"/>
   <stop style="stop-color:#5cb7f6;stop-opacity:1" offset="1"/>
  </linearGradient>
  <linearGradient id="linearGradient4234" x1="13" x2="13" y1="21" y2="3" gradientUnits="userSpaceOnUse" xlink:href="#linearGradient4256"/>
 </defs>
 <g transform="matrix(0.55,0,0,0.3333336,-1.2000011,7.33333)" style="display:inline">
  <g transform="matrix(1.052632,0,0,1.285713,-1.263158,-13.42854)" style="opacity:0.4">
   <rect width="5" height="7" x="38" y="40" style="fill:url(#radialGradient3082-6);fill-opacity:1;stroke:none"/>
   <rect width="5" height="7" x="-10" y="-47" transform="scale(-1,-1)" style="fill:url(#radialGradient3084-4);fill-opacity:1;stroke:none"/>
   <rect width="28" height="7" x="10" y="40" style="fill:url(#linearGradient3086-8);fill-opacity:1;stroke:none"/>
  </g>
 </g>
 <path d="m 3.5,2.5 c -0.5626486,0 -1,0.437351 -1,1 l 0,17 c 0,0.562649 0.4373514,1 1,1 l 17,0 c 0.562649,0 1,-0.437351 1,-1 l 0,-17 c 0,-0.562649 -0.437351,-1 -1,-1 l -17,0 z" style="display:inline;opacity:1;fill:url(#linearGradient4234);fill-opacity:1;stroke:none;stroke-width:1;stroke-miterlimit:4;stroke-dasharray:none;stroke-opacity:0"/>
 <path style="color:#000000;font-style:normal;font-variant:normal;font-weight:normal;font-stretch:normal;font-size:medium;line-height:normal;font-family:sans-serif;text-indent:0;text-align:start;text-decoration:none;text-decoration-line:none;text-decoration-style:solid;text-decoration-color:#000000;letter-spacing:normal;word-spacing:normal;text-transform:none;direction:ltr;block-progression:tb;writing-mode:lr-tb;baseline-shift:baseline;text-anchor:start;white-space:normal;clip-rule:nonzero;display:inline;overflow:visible;visibility:visible;opacity:0.15;isolation:auto;mix-blend-mode:normal;color-interpolation:sRGB;color-interpolation-filters:linearRGB;solid-color:#000000;solid-opacity:1;fill:#000000;fill-opacity:1;fill-rule:evenodd;stroke:none;stroke-width:2;stroke-linecap:butt;stroke-linejoin:round;stroke-miterlimit:4;stroke-dasharray:none;stroke-dashoffset:0;stroke-opacity:1;color-rendering:auto;image-rendering:auto;shape-rendering:auto;text-rendering:auto;enable-background:accumulate" d="M 12 5 C 8.5412537 5 6.3644631 6.8042203 5.5410156 8.703125 C 4.8908809 10.202363 4.9589798 11.439099 5.0039062 11.919922 A 1.0001 1.0001 0 0 0 5.0039062 11.923828 A 1.0001 1.0001 0 0 0 5 12 L 5 12.025391 A 1.0001 1.0001 0 0 0 5 12.044922 L 5 12.105469 C 4.4522088 12.236856 4.0000582 12.668042 4 13.25 L 4 15.75 C 4.0000678 16.428435 4.5715651 16.999932 5.25 17 L 5.4785156 17 L 5.6328125 17.306641 C 5.8421982 17.727594 6.2759455 17.997735 6.7460938 18 A 1.0001 1.0001 0 0 0 6.75 18 L 7.4785156 18 L 7.6328125 18.306641 C 7.8421982 18.727594 8.2759454 18.997735 8.7460938 19 A 1.0001 1.0001 0 0 0 8.75 19 L 9.75 19 C 10.428435 18.999932 10.999932 18.428435 11 17.75 L 11 12.25 C 10.999932 11.571565 10.428435 11.000068 9.75 11 L 9.1035156 11 C 9.1256749 10.722206 9.0728335 10.615349 9.2109375 10.296875 C 9.3784115 9.9106681 9.5362927 9.6565658 9.8867188 9.4335938 C 10.237145 9.2106215 10.85473 9 12 9 C 13.145273 9 13.762856 9.2106217 14.113281 9.4335938 C 14.463706 9.6565656 14.621587 9.9106654 14.789062 10.296875 C 14.927167 10.615348 14.874322 10.722206 14.896484 11 L 14.25 11 C 13.571565 11.000068 13.000068 11.571565 13 12.25 L 13 17.75 C 13.000068 18.428435 13.571565 18.999932 14.25 19 L 15.25 19 A 1.0001 1.0001 0 0 0 15.253906 19 C 15.724054 18.9977 16.157801 18.727594 16.367188 18.306641 L 16.521484 18 L 17.25 18 A 1.0001 1.0001 0 0 0 17.253906 18 C 17.724054 17.9977 18.157801 17.727594 18.367188 17.306641 L 18.521484 17 L 18.75 17 C 19.428435 16.999932 19.999932 16.428435 20 15.75 L 20 13.25 C 19.999942 12.668042 19.547791 12.236857 19 12.105469 L 19 12.044922 L 19 12 A 1.0001 1.0001 0 0 0 18.996094 11.925781 C 19.041063 11.448344 19.11085 10.20636 18.458984 8.703125 C 17.635529 6.8042307 15.458751 5 12 5 z"/>
 <path style="color:#000000;font-style:normal;font-variant:normal;font-weight:normal;font-stretch:normal;font-size:medium;line-height:normal;font-family:sans-serif;text-indent:0;text-align:start;text-decoration:none;text-decoration-line:none;text-decoration-style:solid;text-decoration-color:#000000;letter-spacing:normal;word-spacing:normal;text-transform:none;direction:ltr;block-progression:tb;writing-mode:lr-tb;baseline-shift:baseline;text-anchor:start;white-space:normal;clip-rule:nonzero;display:inline;overflow:visible;visibility:visible;opacity:0.3;isolation:auto;mix-blend-mode:normal;color-interpolation:sRGB;color-interpolation-filters:linearRGB;solid-color:#000000;solid-opacity:1;fill:#000000;fill-opacity:1;fill-rule:evenodd;stroke:none;stroke-width:0.5;stroke-linecap:butt;stroke-linejoin:round;stroke-miterlimit:4;stroke-dasharray:none;stroke-dashoffset:0;stroke-opacity:1;color-rendering:auto;image-rendering:auto;shape-rendering:auto;text-rendering:auto;enable-background:accumulate" d="M 12,6 C 8.8739383,6 7.1274777,7.5599887 6.4589844,9.1015625 5.8466206,10.513699 5.9736939,11.825328 6,12.044922 L 6,12 6.00781,12.130859 c 0,0 -0.0054,-0.06581 -0.00781,-0.08594 L 6,13 5.25,13 A 0.250025,0.250025 0 0 0 5,13.25 l 0,2.5 A 0.250025,0.250025 0 0 0 5.25,16 l 0.8457031,0 0.4316407,0.861328 A 0.250025,0.250025 0 0 0 6.75,17 l 1.3457031,0 0.4316407,0.861328 A 0.250025,0.250025 0 0 0 8.75,18 l 1,0 A 0.250025,0.250025 0 0 0 10,17.75 l 0,-5.5 A 0.250025,0.250025 0 0 0 9.75,12 l -1,0 A 0.250025,0.250025 0 0 0 8.5273438,12.138672 L 8.0957031,13 8,13 8,12 A 1.0001,1.0001 0 0 0 7.99219,11.869141 c 0,0 -0.1148341,-1.012277 0.3007813,-1.9707035 C 8.7085813,8.9400113 9.4624957,8 12,8 c 2.537511,0 3.291418,0.9400123 3.707031,1.8984375 0.415614,0.9584255 0.300781,1.9707035 0.300781,1.9707035 A 1.0001,1.0001 0 0 0 16,12 l 0,1 -0.0957,0 -0.431641,-0.861328 A 0.250025,0.250025 0 0 0 15.25,12 l -1,0 A 0.250025,0.250025 0 0 0 14,12.25 l 0,5.5 A 0.250025,0.250025 0 0 0 14.25,18 l 1,0 a 0.250025,0.250025 0 0 0 0.222656,-0.138672 L 15.904297,17 17.25,17 a 0.250025,0.250025 0 0 0 0.222656,-0.138672 L 17.904297,16 18.75,16 A 0.250025,0.250025 0 0 0 19,15.75 l 0,-2.5 A 0.250025,0.250025 0 0 0 18.75,13 L 18,13 18,12.044922 c -0.0024,0.02013 -0.0078,0.08594 -0.0078,0.08594 L 18,12 18,12.04492 C 18.026306,11.825328 18.153378,10.5137 17.541016,9.1015625 16.872512,7.5599877 15.126067,6 12,6 Z"/>
 <rect width="2" height="1" x="-7" y="17" rx="0" ry="0" transform="scale(-1,1)" style="display:inline;opacity:0.65;fill:#ffffff;fill-opacity:1;stroke:#ffffff;stroke-width:0;stroke-linecap:round;stroke-linejoin:miter;stroke-miterlimit:4;stroke-dasharray:none;stroke-opacity:1"/>
 <rect style="display:inline;opacity:0.65;fill:#ffffff;fill-opacity:1;stroke:#ffffff;stroke-width:0;stroke-linecap:round;stroke-linejoin:miter;stroke-miterlimit:4;stroke-dasharray:none;stroke-opacity:1" width="2" height="1" x="17" y="17" rx="0" ry="0"/>
 <rect style="display:inline;opacity:0.9;fill:#ffffff;fill-opacity:1;stroke:#ffffff;stroke-width:0;stroke-linecap:round;stroke-linejoin:miter;stroke-miterlimit:4;stroke-dasharray:none;stroke-opacity:1" width="2" height="1" x="-10" y="19" rx="0" ry="0" transform="scale(-1,1)"/>
 <rect style="display:inline;opacity:0.9;fill:#ffffff;fill-opacity:1;stroke:#ffffff;stroke-width:0;stroke-linecap:round;stroke-linejoin:miter;stroke-miterlimit:4;stroke-dasharray:none;stroke-opacity:1" width="2" height="1" x="-7" y="19" rx="0" ry="0" transform="scale(-1,1)"/>
 <path d="m 5.25,12.25005 0,2.5 1,0 0.5,1 1.5,0 0.5,1 1,0 0,-5.5 -1,0 -0.5,1 z" style="display:inline;opacity:1;fill:#ffffff;fill-opacity:1;fill-rule:evenodd;stroke:#ffffff;stroke-width:0.5;stroke-linecap:butt;stroke-linejoin:round;stroke-miterlimit:4;stroke-dasharray:none;stroke-opacity:1"/>
 <path d="M 7,12.23935 7,11 c 0,0 -0.663566,-5 5,-5 5.663578,0 5,5 5,5 l 0,1.23935" style="display:inline;opacity:1;fill:none;fill-rule:evenodd;stroke:#ffffff;stroke-width:2;stroke-linecap:round;stroke-linejoin:round;stroke-miterlimit:4;stroke-dasharray:none;stroke-opacity:1"/>
 <path style="display:inline;opacity:1;fill:#ffffff;fill-opacity:1;fill-rule:evenodd;stroke:#ffffff;stroke-width:0.5;stroke-linecap:butt;stroke-linejoin:round;stroke-miterlimit:4;stroke-dasharray:none;stroke-opacity:1" d="m 18.75,12.25005 0,2.5 -1,0 -0.5,1 -1.5,0 -0.5,1 -1,0 0,-5.5 1,0 0.5,1 z"/>
 <rect style="display:inline;opacity:0.9;fill:#ffffff;fill-opacity:1;stroke:#ffffff;stroke-width:0;stroke-linecap:round;stroke-linejoin:miter;stroke-miterlimit:4;stroke-dasharray:none;stroke-opacity:1" width="2" height="1" x="11" y="19" rx="0" ry="0"/>
 <rect width="2" height="1" x="14" y="19" rx="0" ry="0" style="display:inline;opacity:0.9;fill:#ffffff;fill-opacity:1;stroke:#ffffff;stroke-width:0;stroke-linecap:round;stroke-linejoin:miter;stroke-miterlimit:4;stroke-dasharray:none;stroke-opacity:1"/>
 <rect width="2" height="1" x="17" y="19" rx="0" ry="0" style="display:inline;opacity:0.9;fill:#ffffff;fill-opacity:1;stroke:#ffffff;stroke-width:0;stroke-linecap:round;stroke-linejoin:miter;stroke-miterlimit:4;stroke-dasharray:none;stroke-opacity:1"/>
 <rect width="2" height="1" x="11" y="17" rx="0" ry="0" style="display:inline;opacity:0.65;fill:#ffffff;fill-opacity:1;stroke:#ffffff;stroke-width:0;stroke-linecap:round;stroke-linejoin:miter;stroke-miterlimit:4;stroke-dasharray:none;stroke-opacity:1"/>
 <rect style="display:inline;opacity:0.4;fill:#ffffff;fill-opacity:1;stroke:#ffffff;stroke-width:0;stroke-linecap:round;stroke-linejoin:miter;stroke-miterlimit:4;stroke-dasharray:none;stroke-opacity:1" width="2" height="1" x="11" y="15" rx="0" ry="0"/>
 <rect width="19" height="19" x="2.5" y="2.5" rx="1" ry="1" style="color:#000000;display:inline;overflow:visible;visibility:visible;opacity:0.4;fill:none;fill-opacity:1;stroke:#003464;stroke-width:1;stroke-linecap:round;stroke-linejoin:round;stroke-miterlimit:4;stroke-dasharray:none;stroke-dashoffset:0;stroke-opacity:1;marker:none;enable-background:accumulate"/>
 <rect width="17" height="17" x="3.5" y="3.5" style="opacity:0.5;fill:none;stroke:url(#linearGradient5397);stroke-width:0.99999988;stroke-linecap:round;stroke-linejoin:round;stroke-miterlimit:4;stroke-dasharray:none;stroke-dashoffset:0;stroke-opacity:1"/>
 <g style="display:none" transform="translate(0,-24)">
  <rect style="fill:url(#radialGradient4214);fill-opacity:1;fill-rule:evenodd;stroke:none;stroke-width:1px;stroke-linecap:butt;stroke-linejoin:miter;stroke-opacity:1" width="40" height="14" x="4" y="5" ry="2"/>
 </g>
</svg>
