<svg xmlns="http://www.w3.org/2000/svg" xmlns:xlink="http://www.w3.org/1999/xlink" width="16" height="16" version="1.1">
 <defs>
  <linearGradient id="linearGradient4224" x1="24" x2="24" y1="5" y2="43" gradientTransform="matrix(0.2972973,0,0,0.2972973,0.86486973,0.86486734)" gradientUnits="userSpaceOnUse" xlink:href="#linearGradient3924-4-8"/>
  <linearGradient id="linearGradient3924-4-8">
   <stop offset="0" style="stop-color:#ffffff;stop-opacity:1"/>
   <stop offset=".063" style="stop-color:#ffffff;stop-opacity:0.23529412"/>
   <stop offset=".951" style="stop-color:#ffffff;stop-opacity:0.15686275"/>
   <stop offset="1" style="stop-color:#ffffff;stop-opacity:0.39215687"/>
  </linearGradient>
  <linearGradient id="linearGradient4256">
   <stop offset="0" style="stop-color:#278acc;stop-opacity:1"/>
   <stop offset="1" style="stop-color:#72cce5;stop-opacity:1"/>
  </linearGradient>
  <linearGradient id="linearGradient4221" x1="8" x2="8" y1="14.468" y2="1" gradientUnits="userSpaceOnUse" xlink:href="#linearGradient4256"/>
 </defs>
 <rect width="13" height="13" x="1.5" y="1.5" rx="1" ry="1" style="color:#000000;display:inline;overflow:visible;visibility:visible;fill:url(#linearGradient4221);fill-opacity:1;fill-rule:nonzero;stroke:none;stroke-width:0.99999994;marker:none;enable-background:accumulate"/>
 <path d="M 8,3 C 5.6878777,3 4.1780616,4.3027135 3.5507812,5.59375 2.9564294,6.8170148 3.0098336,7.953267 3.0117188,8 L 3,8 A 1.0001,1.0001 0 0 0 2,9 l 0,2 a 1.0001,1.0001 0 0 0 1,1 l 0.5859375,0 0.7070313,0.707031 A 1.0001,1.0001 0 0 0 5,13 1.0001,1.0001 0 0 0 6,14 l 1,0 a 1.0001,1.0001 0 0 0 1,-1 1.0001,1.0001 0 0 0 1,1 l 1,0 a 1.0001,1.0001 0 0 0 1,-1 1.0001,1.0001 0 0 0 0.707031,-0.292969 L 12.414062,12 13,12 a 1.0001,1.0001 0 0 0 1,-1 L 14,9 A 1.0001,1.0001 0 0 0 13,8 L 12.98828,8 C 12.990166,7.953267 13.043574,6.8170161 12.449219,5.59375 11.821938,4.3027137 10.312122,3 8,3 Z" style="color:#000000;font-style:normal;font-variant:normal;font-weight:normal;font-stretch:normal;font-size:medium;line-height:normal;font-family:sans-serif;text-indent:0;text-align:start;text-decoration:none;text-decoration-line:none;text-decoration-style:solid;text-decoration-color:#000000;letter-spacing:normal;word-spacing:normal;text-transform:none;direction:ltr;block-progression:tb;writing-mode:lr-tb;baseline-shift:baseline;text-anchor:start;white-space:normal;clip-rule:nonzero;display:inline;overflow:visible;visibility:visible;opacity:0.15;isolation:auto;mix-blend-mode:normal;color-interpolation:sRGB;color-interpolation-filters:linearRGB;solid-color:#000000;solid-opacity:1;fill:#000000;fill-opacity:1;fill-rule:evenodd;stroke:none;stroke-width:2;stroke-linecap:round;stroke-linejoin:round;stroke-miterlimit:4;stroke-dasharray:none;stroke-dashoffset:0;stroke-opacity:1;color-rendering:auto;image-rendering:auto;shape-rendering:auto;text-rendering:auto;enable-background:accumulate"/>
 <path style="display:inline;opacity:0.3;fill:#000000;fill-opacity:1;fill-rule:evenodd;stroke:none;stroke-width:1;stroke-linecap:butt;stroke-linejoin:miter;stroke-miterlimit:4;stroke-dasharray:none;stroke-opacity:1" d="M 8,4 C 6.0384698,4 4.9369018,5.0315454 4.4511719,6.03125 3.965442,7.0309546 4,8.0136719 4,8.0136719 L 4,9 3,9 l 0,2 1,0 1,1 1,0 0,1 1,0 L 7,8 6,8 6,9 5,9 5,8 A 0.50005,0.50005 0 0 0 5,7.986328 c 0,0 -0.014939,-0.7672827 0.3496094,-1.5175781 C 5.714158,5.7184547 6.3626442,5 8,5 9.6373558,5 10.285842,5.7184546 10.650391,6.46875 11.014939,7.2190454 11,7.9863281 11,7.9863281 A 0.50005,0.50005 0 0 0 11,8 l 0,1 -1,0 0,-1 -1,0 0,5 1,0 0,-1 1,0 1,-1 1,0 0,-2 -1,0 0,-0.9863281 c 0,0 0.03456,-0.9827173 -0.451172,-1.9824219 C 11.063098,5.0315454 9.9615302,4 8,4 Z"/>
 <rect width="11" height="11" x="2.5" y="2.5" style="opacity:0.5;fill:none;stroke:url(#linearGradient4224);stroke-width:1;stroke-linecap:round;stroke-linejoin:round;stroke-miterlimit:4;stroke-dasharray:none;stroke-dashoffset:0;stroke-opacity:1"/>
 <rect width="13" height="13" x="1.5" y="1.5" rx="1" ry="1" style="color:#000000;display:inline;overflow:visible;visibility:visible;opacity:0.4;fill:none;stroke:#003464;stroke-width:1;stroke-linecap:round;stroke-linejoin:round;stroke-miterlimit:4;stroke-dasharray:none;stroke-dashoffset:0;stroke-opacity:1;marker:none;enable-background:accumulate"/>
 <path d="m 3,8 0,2 1,0 1,1 1,0 0,1 1,0 0,-5 -1,0 8.01e-5,1 z" style="display:inline;opacity:1;fill:#ffffff;fill-opacity:1;fill-rule:evenodd;stroke:none;stroke-width:1;stroke-linecap:butt;stroke-linejoin:miter;stroke-miterlimit:4;stroke-dasharray:none;stroke-opacity:1"/>
 <path d="m 4.5,8 0,-1 C 4.5,7 4.401114,3.5 8,3.5 11.598886,3.5 11.5,7 11.5,7 l 0,1" style="display:inline;opacity:1;fill:none;fill-rule:evenodd;stroke:#ffffff;stroke-width:1;stroke-linecap:round;stroke-linejoin:round;stroke-miterlimit:4;stroke-dasharray:none;stroke-opacity:1"/>
 <path style="display:inline;opacity:1;fill:#ffffff;fill-opacity:1;fill-rule:evenodd;stroke:none;stroke-width:1;stroke-linecap:butt;stroke-linejoin:miter;stroke-miterlimit:4;stroke-dasharray:none;stroke-opacity:1" d="m 13,8 0,2 -1,0 -1,1 -1,0 0,1 -1,0 0,-5 1,0 -8e-5,1 z"/>
 <path d="M 8,3 C 6.0384698,3 4.9369018,4.0315454 4.4511719,5.03125 3.965442,6.0309546 4,7.0136719 4,7.0136719 L 4,8 3,8 l 0,2 1,0 1,1 1,0 0,1 1,0 L 7,7 6,7 6,8 5,8 5,7 A 0.50005,0.50005 0 0 0 5,6.986328 c 0,0 -0.014939,-0.7672827 0.3496094,-1.5175781 C 5.714158,4.7184547 6.3626442,4 8,4 9.6373558,4 10.285842,4.7184546 10.650391,5.46875 11.014939,6.2190454 11,6.9863281 11,6.9863281 A 0.50005,0.50005 0 0 0 11,7 l 0,1 -1,0 0,-1 -1,0 0,5 1,0 0,-1 1,0 1,-1 1,0 0,-2 -1,0 0,-0.9863281 c 0,0 0.03456,-0.9827173 -0.451172,-1.9824219 C 11.063098,4.0315454 9.9615302,3 8,3 Z" style="display:inline;opacity:1;fill:#ffffff;fill-opacity:1;fill-rule:evenodd;stroke:none;stroke-width:1;stroke-linecap:butt;stroke-linejoin:miter;stroke-miterlimit:4;stroke-dasharray:none;stroke-opacity:1"/>
</svg>
