<svg xmlns="http://www.w3.org/2000/svg" xmlns:xlink="http://www.w3.org/1999/xlink" width="64" height="64" version="1.1">
 <defs>
  <linearGradient id="linearGradient4256">
   <stop style="stop-color:#1777ba;stop-opacity:1" offset="0"/>
   <stop style="stop-color:#5cb7f6;stop-opacity:1" offset="1"/>
  </linearGradient>
  <linearGradient id="linearGradient3381-5-4" x1="24" x2="24" y1="5" y2="43" gradientTransform="matrix(1.4324324,0,0,1.4362832,-2.378381,-2.4707782)" gradientUnits="userSpaceOnUse" xlink:href="#linearGradient3924-2-2-5-8"/>
  <linearGradient id="linearGradient3924-2-2-5-8">
   <stop style="stop-color:#ffffff;stop-opacity:1" offset="0"/>
   <stop style="stop-color:#ffffff;stop-opacity:0.23529412" offset=".063"/>
   <stop style="stop-color:#ffffff;stop-opacity:0.15686275" offset=".951"/>
   <stop style="stop-color:#ffffff;stop-opacity:0.39215687" offset="1"/>
  </linearGradient>
  <radialGradient id="radialGradient3337-2-2" cx="4.993" cy="43.5" r="2.5" fx="4.993" fy="43.5" gradientTransform="matrix(2.003784,0,0,1.4,27.98813,-17.4)" gradientUnits="userSpaceOnUse" xlink:href="#linearGradient3688-166-749-4-0-3-8"/>
  <linearGradient id="linearGradient3688-166-749-4-0-3-8">
   <stop style="stop-color:#181818;stop-opacity:1" offset="0"/>
   <stop style="stop-color:#181818;stop-opacity:0" offset="1"/>
  </linearGradient>
  <radialGradient id="radialGradient3339-1-4" cx="4.993" cy="43.5" r="2.5" fx="4.993" fy="43.5" gradientTransform="matrix(2.003784,0,0,1.4,-20.01187,-104.4)" gradientUnits="userSpaceOnUse" xlink:href="#linearGradient3688-464-309-9-2-4-2"/>
  <linearGradient id="linearGradient3688-464-309-9-2-4-2">
   <stop style="stop-color:#181818;stop-opacity:1" offset="0"/>
   <stop style="stop-color:#181818;stop-opacity:0" offset="1"/>
  </linearGradient>
  <linearGradient id="linearGradient3702-501-757-8-4-1-1">
   <stop style="stop-color:#181818;stop-opacity:0" offset="0"/>
   <stop style="stop-color:#181818;stop-opacity:1" offset=".5"/>
   <stop style="stop-color:#181818;stop-opacity:0" offset="1"/>
  </linearGradient>
  <linearGradient id="linearGradient6394" x1="25.058" x2="25.058" y1="47.028" y2="39.999" gradientUnits="userSpaceOnUse" xlink:href="#linearGradient3702-501-757-8-4-1-1"/>
  <linearGradient id="linearGradient4262" x1="31" x2="31" y1="59" y2="4.737" gradientUnits="userSpaceOnUse" xlink:href="#linearGradient4256"/>
 </defs>
 <g style="opacity:0.6" transform="matrix(1.5789502,0,0,0.7142857,-5.894751,27.928572)">
  <rect style="fill:url(#radialGradient3337-2-2);fill-opacity:1;stroke:none" width="5" height="7" x="38" y="40"/>
  <rect style="fill:url(#radialGradient3339-1-4);fill-opacity:1;stroke:none" width="5" height="7" x="-10" y="-47" transform="scale(-1,-1)"/>
  <rect style="fill:url(#linearGradient6394);fill-opacity:1;stroke:none" width="28" height="7" x="10" y="40"/>
 </g>
 <rect style="color:#000000;display:inline;overflow:visible;visibility:visible;fill:url(#linearGradient4262);fill-opacity:1;fill-rule:nonzero;stroke:none;stroke-width:0.99999994;marker:none;enable-background:accumulate" width="55" height="55" x="4.5" y="4.5" rx="3" ry="3"/>
 <path style="color:#000000;font-style:normal;font-variant:normal;font-weight:normal;font-stretch:normal;font-size:medium;line-height:normal;font-family:sans-serif;text-indent:0;text-align:start;text-decoration:none;text-decoration-line:none;text-decoration-style:solid;text-decoration-color:#000000;letter-spacing:normal;word-spacing:normal;text-transform:none;direction:ltr;block-progression:tb;writing-mode:lr-tb;baseline-shift:baseline;text-anchor:start;white-space:normal;clip-rule:nonzero;display:inline;overflow:visible;visibility:visible;opacity:0.15;isolation:auto;mix-blend-mode:normal;color-interpolation:sRGB;color-interpolation-filters:linearRGB;solid-color:#000000;solid-opacity:1;fill:none;fill-opacity:1;fill-rule:evenodd;stroke:#000000;stroke-width:2;stroke-linecap:butt;stroke-linejoin:round;stroke-miterlimit:4;stroke-dasharray:none;stroke-dashoffset:0;stroke-opacity:1;color-rendering:auto;image-rendering:auto;shape-rendering:auto;text-rendering:auto;enable-background:accumulate" d="m 32,9.9999995 c -8.546978,0 -13.415511,4.2273275 -15.699219,8.3867185 C 14.017073,22.546109 14,26.68164 14,26.68164 a 2.0002,2.0002 0 0 0 0,0.01758 l 0,5.300781 -2.294922,0 C 11.31547,31.999505 10.999506,32.350625 11,32.740233 l 0,6.585938 c 5.85e-4,0.388846 0.316232,0.674321 0.705078,0.673828 l 2.359375,0 1.205078,2.673828 c 0.118829,0.240815 0.364277,0.326677 0.632813,0.326172 l 3.757812,0 1.207032,2.607422 c 0.118518,0.240183 0.363027,0.392338 0.630859,0.392578 l 2.796875,0 C 24.68453,46.000493 25.000494,45.684529 25,45.294921 l 0,-15.589844 c 4.94e-4,-0.389608 -0.31547,-0.705572 -0.705078,-0.705078 l -2.796875,0 c -0.267832,2.4e-4 -0.512342,0.152395 -0.630859,0.392578 l -1.207032,2.607422 -1.660156,0 0,-5.28125 c 0,0 0.05484,-3.215641 1.806641,-6.40625 1.751799,-3.190611 4.882351,-6.3125 12.193359,-6.3125 7.311026,0 10.441569,3.121893 12.193359,6.3125 C 45.94515,23.503106 46,26.718749 46,26.718749 l 0,5.28125 -1.660156,0 -1.207032,-2.607422 c -0.118518,-0.240183 -0.363027,-0.392338 -0.630859,-0.392578 l -2.796875,0 C 39.31547,28.999505 38.999506,29.315469 39,29.705077 l 0,15.589844 c -4.94e-4,0.389608 0.31547,0.705572 0.705078,0.705078 l 2.796875,0 c 0.267832,-2.4e-4 0.512341,-0.152395 0.630859,-0.392578 l 1.207032,-2.607422 3.757812,0 c 0.268536,5.05e-4 0.513984,-0.08536 0.632813,-0.326172 l 1.205078,-2.673828 2.359375,0 C 52.683768,40.000492 52.999415,39.715017 53,39.326171 l 0,-6.585938 c 4.94e-4,-0.389608 -0.31547,-0.740728 -0.705078,-0.740234 l -2.294922,0 0,-5.300781 a 2.0002,2.0002 0 0 0 0,-0.01758 c 0,0 -0.01708,-4.135529 -2.300781,-8.294922 C 45.415519,14.227326 40.546994,9.9999995 32,9.9999995 Z"/>
 <path d="m 32,9.9999994 c -8.546978,0 -13.415511,4.2273276 -15.699219,8.3867186 C 14.017073,22.546109 14,26.68164 14,26.68164 a 2.0002,2.0002 0 0 0 0,0.01758 l 0,5.300781 -2.294922,0 C 11.31547,31.999505 10.999506,32.350625 11,32.740233 l 0,6.585938 c 5.85e-4,0.388846 0.316232,0.674321 0.705078,0.673828 l 2.359375,0 1.205078,2.673828 c 0.118829,0.240815 0.364277,0.326677 0.632813,0.326172 l 3.757812,0 1.207032,2.607422 c 0.118518,0.240183 0.363027,0.392338 0.630859,0.392578 l 2.796875,0 C 24.68453,46.000493 25.000494,45.684529 25,45.294921 l 0,-15.589844 c 4.94e-4,-0.389608 -0.31547,-0.705572 -0.705078,-0.705078 l -2.796875,0 c -0.267832,2.4e-4 -0.512342,0.152395 -0.630859,0.392578 l -1.207032,2.607422 -1.660156,0 0,-5.28125 c 0,0 0.05484,-3.215641 1.806641,-6.40625 1.751799,-3.190611 4.882351,-6.3125 12.193359,-6.3125 7.311026,0 10.441569,3.121893 12.193359,6.3125 C 45.94515,23.503106 46,26.718749 46,26.718749 l 0,5.28125 -1.660156,0 -1.207032,-2.607422 c -0.118518,-0.240183 -0.363027,-0.392338 -0.630859,-0.392578 l -2.796875,0 C 39.31547,28.999505 38.999506,29.315469 39,29.705077 l 0,15.589844 c -4.94e-4,0.389608 0.31547,0.705572 0.705078,0.705078 l 2.796875,0 c 0.267832,-2.4e-4 0.512341,-0.152395 0.630859,-0.392578 l 1.207032,-2.607422 3.757812,0 c 0.268536,5.05e-4 0.513984,-0.08536 0.632813,-0.326172 l 1.205078,-2.673828 2.359375,0 C 52.683768,40.000492 52.999415,39.715017 53,39.326171 l 0,-6.585938 c 4.94e-4,-0.389608 -0.31547,-0.740728 -0.705078,-0.740234 l -2.294922,0 0,-5.300781 a 2.0002,2.0002 0 0 0 0,-0.01758 c 0,0 -0.01708,-4.135529 -2.300781,-8.294922 C 45.415519,14.227326 40.546994,9.9999994 32,9.9999994 Z" style="color:#000000;font-style:normal;font-variant:normal;font-weight:normal;font-stretch:normal;font-size:medium;line-height:normal;font-family:sans-serif;text-indent:0;text-align:start;text-decoration:none;text-decoration-line:none;text-decoration-style:solid;text-decoration-color:#000000;letter-spacing:normal;word-spacing:normal;text-transform:none;direction:ltr;block-progression:tb;writing-mode:lr-tb;baseline-shift:baseline;text-anchor:start;white-space:normal;clip-rule:nonzero;display:inline;overflow:visible;visibility:visible;opacity:0.3;isolation:auto;mix-blend-mode:normal;color-interpolation:sRGB;color-interpolation-filters:linearRGB;solid-color:#000000;solid-opacity:1;fill:#000000;fill-opacity:1;fill-rule:evenodd;stroke:none;stroke-width:2;stroke-linecap:butt;stroke-linejoin:round;stroke-miterlimit:4;stroke-dasharray:none;stroke-dashoffset:0;stroke-opacity:1;color-rendering:auto;image-rendering:auto;shape-rendering:auto;text-rendering:auto;enable-background:accumulate"/>
 <rect style="opacity:0.5;fill:none;stroke:url(#linearGradient3381-5-4);stroke-width:1;stroke-linecap:round;stroke-linejoin:round;stroke-miterlimit:4;stroke-dasharray:none;stroke-dashoffset:0;stroke-opacity:1" width="53" height="53.142" x="5.5" y="5.43" rx="2" ry="2"/>
 <rect style="color:#000000;display:inline;overflow:visible;visibility:visible;opacity:0.4;fill:none;stroke:#003464;stroke-width:1;stroke-linecap:round;stroke-linejoin:round;stroke-miterlimit:4;stroke-dasharray:none;stroke-dashoffset:0;stroke-opacity:1;marker:none;enable-background:accumulate" width="55" height="55" x="4.5" y="4.5" rx="3" ry="3"/>
 <path style="color:#000000;font-style:normal;font-variant:normal;font-weight:normal;font-stretch:normal;font-size:medium;line-height:normal;font-family:sans-serif;text-indent:0;text-align:start;text-decoration:none;text-decoration-line:none;text-decoration-style:solid;text-decoration-color:#000000;letter-spacing:normal;word-spacing:normal;text-transform:none;direction:ltr;block-progression:tb;writing-mode:lr-tb;baseline-shift:baseline;text-anchor:start;white-space:normal;clip-rule:nonzero;display:inline;overflow:visible;visibility:visible;opacity:1;isolation:auto;mix-blend-mode:normal;color-interpolation:sRGB;color-interpolation-filters:linearRGB;solid-color:#000000;solid-opacity:1;fill:#ffffff;fill-opacity:1;fill-rule:evenodd;stroke:none;stroke-width:1.40822971;stroke-linecap:butt;stroke-linejoin:round;stroke-miterlimit:4;stroke-dasharray:none;stroke-dashoffset:0;stroke-opacity:1;color-rendering:auto;image-rendering:auto;shape-rendering:auto;text-rendering:auto;enable-background:accumulate" d="m 21.498047,28.000034 c -0.267832,2.4e-4 -0.512341,0.152395 -0.630859,0.392578 l -1.207032,2.607422 -7.955078,0 C 11.31547,30.99954 10.999506,31.349965 11,31.739573 l 0,6.586898 c 5.85e-4,0.388846 0.316232,0.674056 0.705078,0.673563 l 2.359375,0 1.205078,2.672953 c 0.118829,0.240815 0.364277,0.327552 0.632813,0.327047 l 3.757812,0 1.207032,2.607422 c 0.118518,0.240183 0.363027,0.392338 0.630859,0.392578 l 2.796875,0 C 24.68453,45.000528 25.000494,44.684564 25,44.294956 l 0,-15.589844 c 4.94e-4,-0.389608 -0.31547,-0.705572 -0.705078,-0.705078 z"/>
 <path style="display:inline;opacity:1;fill:none;fill-rule:evenodd;stroke:#ffffff;stroke-width:4;stroke-linecap:round;stroke-linejoin:round;stroke-miterlimit:4;stroke-dasharray:none;stroke-opacity:1" d="m 16,31.970074 0,-6.27004 c 0,0 0.142023,-14.7 16.000009,-14.7 15.85802,0 15.999991,14.7 15.999991,14.7 l 0,6.27004"/>
 <rect style="display:inline;opacity:0.9;fill:#ffffff;fill-opacity:1;stroke:#ffffff;stroke-width:0;stroke-linecap:round;stroke-linejoin:miter;stroke-miterlimit:4;stroke-dasharray:none;stroke-opacity:1" width="5" height="3" x="8" y="52" rx="0" ry="0"/>
 <rect width="5" height="3" x="15" y="52" rx="0" ry="0" style="display:inline;opacity:0.9;fill:#ffffff;fill-opacity:1;stroke:#ffffff;stroke-width:0;stroke-linecap:round;stroke-linejoin:miter;stroke-miterlimit:4;stroke-dasharray:none;stroke-opacity:1"/>
 <rect style="display:inline;opacity:0.9;fill:#ffffff;fill-opacity:1;stroke:#ffffff;stroke-width:0;stroke-linecap:round;stroke-linejoin:miter;stroke-miterlimit:4;stroke-dasharray:none;stroke-opacity:1" width="5" height="3" x="22" y="52" rx="0" ry="0"/>
 <rect width="5" height="3" x="29" y="52" rx="0" ry="0" style="display:inline;opacity:0.9;fill:#ffffff;fill-opacity:1;stroke:#ffffff;stroke-width:0;stroke-linecap:round;stroke-linejoin:miter;stroke-miterlimit:4;stroke-dasharray:none;stroke-opacity:1"/>
 <rect style="display:inline;opacity:0.9;fill:#ffffff;fill-opacity:1;stroke:#ffffff;stroke-width:0;stroke-linecap:round;stroke-linejoin:miter;stroke-miterlimit:4;stroke-dasharray:none;stroke-opacity:1" width="5" height="3" x="36" y="52" rx="0" ry="0"/>
 <rect width="5" height="3" x="43" y="52" rx="0" ry="0" style="display:inline;opacity:0.9;fill:#ffffff;fill-opacity:1;stroke:#ffffff;stroke-width:0;stroke-linecap:round;stroke-linejoin:miter;stroke-miterlimit:4;stroke-dasharray:none;stroke-opacity:1"/>
 <rect style="display:inline;opacity:0.9;fill:#ffffff;fill-opacity:1;stroke:#ffffff;stroke-width:0;stroke-linecap:round;stroke-linejoin:miter;stroke-miterlimit:4;stroke-dasharray:none;stroke-opacity:1" width="5" height="3" x="50" y="52" rx="0" ry="0"/>
 <rect width="5" height="3" x="8" y="48" rx="0" ry="0" style="display:inline;opacity:0.65;fill:#ffffff;fill-opacity:1;stroke:#ffffff;stroke-width:0;stroke-linecap:round;stroke-linejoin:miter;stroke-miterlimit:4;stroke-dasharray:none;stroke-opacity:1"/>
 <rect width="5" height="3" x="22" y="48" rx="0" ry="0" style="display:inline;opacity:0.65;fill:#ffffff;fill-opacity:1;stroke:#ffffff;stroke-width:0;stroke-linecap:round;stroke-linejoin:miter;stroke-miterlimit:4;stroke-dasharray:none;stroke-opacity:1"/>
 <rect style="display:inline;opacity:0.65;fill:#ffffff;fill-opacity:1;stroke:#ffffff;stroke-width:0;stroke-linecap:round;stroke-linejoin:miter;stroke-miterlimit:4;stroke-dasharray:none;stroke-opacity:1" width="5" height="3" x="29" y="48" rx="0" ry="0"/>
 <rect width="5" height="3" x="36" y="48" rx="0" ry="0" style="display:inline;opacity:0.65;fill:#ffffff;fill-opacity:1;stroke:#ffffff;stroke-width:0;stroke-linecap:round;stroke-linejoin:miter;stroke-miterlimit:4;stroke-dasharray:none;stroke-opacity:1"/>
 <rect width="5" height="3" x="50" y="48" rx="0" ry="0" style="display:inline;opacity:0.65;fill:#ffffff;fill-opacity:1;stroke:#ffffff;stroke-width:0;stroke-linecap:round;stroke-linejoin:miter;stroke-miterlimit:4;stroke-dasharray:none;stroke-opacity:1"/>
 <rect width="5" height="3" x="29" y="44" rx="0" ry="0" style="display:inline;opacity:0.4;fill:#ffffff;fill-opacity:1;stroke:#ffffff;stroke-width:0;stroke-linecap:round;stroke-linejoin:miter;stroke-miterlimit:4;stroke-dasharray:none;stroke-opacity:1"/>
 <rect style="display:inline;opacity:0.4;fill:#ffffff;fill-opacity:1;stroke:#ffffff;stroke-width:0;stroke-linecap:round;stroke-linejoin:miter;stroke-miterlimit:4;stroke-dasharray:none;stroke-opacity:1" width="5" height="3" x="50" y="44" rx="0" ry="0"/>
 <path d="m 42.501954,28.000034 c 0.267832,2.4e-4 0.512341,0.152395 0.630859,0.392578 l 1.207032,2.607422 7.955078,0 c 0.389608,-4.94e-4 0.705572,0.349931 0.705078,0.739539 l 0,6.586898 c -5.85e-4,0.388846 -0.316232,0.674056 -0.705078,0.673563 l -2.359375,0 -1.205078,2.672953 c -0.118829,0.240815 -0.364277,0.327552 -0.632813,0.327047 l -3.757812,0 -1.207032,2.607422 c -0.118518,0.240183 -0.363027,0.392338 -0.630859,0.392578 l -2.796875,0 c -0.389608,4.94e-4 -0.705572,-0.31547 -0.705078,-0.705078 l 0,-15.589844 c -4.94e-4,-0.389608 0.31547,-0.705572 0.705078,-0.705078 z" style="color:#000000;font-style:normal;font-variant:normal;font-weight:normal;font-stretch:normal;font-size:medium;line-height:normal;font-family:sans-serif;text-indent:0;text-align:start;text-decoration:none;text-decoration-line:none;text-decoration-style:solid;text-decoration-color:#000000;letter-spacing:normal;word-spacing:normal;text-transform:none;direction:ltr;block-progression:tb;writing-mode:lr-tb;baseline-shift:baseline;text-anchor:start;white-space:normal;clip-rule:nonzero;display:inline;overflow:visible;visibility:visible;opacity:1;isolation:auto;mix-blend-mode:normal;color-interpolation:sRGB;color-interpolation-filters:linearRGB;solid-color:#000000;solid-opacity:1;fill:#ffffff;fill-opacity:1;fill-rule:evenodd;stroke:none;stroke-width:1.40822971;stroke-linecap:butt;stroke-linejoin:round;stroke-miterlimit:4;stroke-dasharray:none;stroke-dashoffset:0;stroke-opacity:1;color-rendering:auto;image-rendering:auto;shape-rendering:auto;text-rendering:auto;enable-background:accumulate"/>
</svg>
