<?xml version="1.0" encoding="UTF-8" standalone="no"?>
<svg
   xmlns:dc="http://purl.org/dc/elements/1.1/"
   xmlns:cc="http://creativecommons.org/ns#"
   xmlns:rdf="http://www.w3.org/1999/02/22-rdf-syntax-ns#"
   xmlns:svg="http://www.w3.org/2000/svg"
   xmlns="http://www.w3.org/2000/svg"
   xmlns:xlink="http://www.w3.org/1999/xlink"
   xmlns:sodipodi="http://sodipodi.sourceforge.net/DTD/sodipodi-0.dtd"
   xmlns:inkscape="http://www.inkscape.org/namespaces/inkscape"
   width="64"
   height="64"
   version="1.1"
   id="svg2"
   inkscape:version="0.91 r13725"
   sodipodi:docname="com.github.artemanufrij.playmymusic.svg">
  <metadata
     id="metadata96">
    <rdf:RDF>
      <cc:Work
         rdf:about="">
        <dc:format>image/svg+xml</dc:format>
        <dc:type
           rdf:resource="http://purl.org/dc/dcmitype/StillImage" />
      </cc:Work>
    </rdf:RDF>
  </metadata>
  <sodipodi:namedview
     pagecolor="#ffffff"
     bordercolor="#666666"
     borderopacity="1"
     objecttolerance="10"
     gridtolerance="10"
     guidetolerance="10"
     inkscape:pageopacity="0"
     inkscape:pageshadow="2"
     inkscape:window-width="3440"
     inkscape:window-height="1377"
     id="namedview94"
     showgrid="false"
     inkscape:zoom="20.85965"
     inkscape:cx="44.043882"
     inkscape:cy="11.038147"
     inkscape:window-x="0"
     inkscape:window-y="30"
     inkscape:window-maximized="1"
     inkscape:current-layer="svg2" />
  <defs
     id="defs4">
    <linearGradient
       id="linearGradient4256">
      <stop
         style="stop-color:#1777ba;stop-opacity:1"
         offset="0"
         id="stop7" />
      <stop
         style="stop-color:#5cb7f6;stop-opacity:1"
         offset="1"
         id="stop9" />
    </linearGradient>
    <linearGradient
       id="linearGradient3381-5-4"
       x1="24"
       x2="24"
       y1="5"
       y2="43"
       gradientTransform="matrix(1.4324324,0,0,1.4362832,-2.378381,-2.4707782)"
       gradientUnits="userSpaceOnUse"
       xlink:href="#linearGradient3924-2-2-5-8" />
    <linearGradient
       id="linearGradient3924-2-2-5-8">
      <stop
         style="stop-color:#ffffff;stop-opacity:1"
         offset="0"
         id="stop13" />
      <stop
         style="stop-color:#ffffff;stop-opacity:0.23529412"
         offset=".063"
         id="stop15" />
      <stop
         style="stop-color:#ffffff;stop-opacity:0.15686275"
         offset=".951"
         id="stop17" />
      <stop
         style="stop-color:#ffffff;stop-opacity:0.39215687"
         offset="1"
         id="stop19" />
    </linearGradient>
    <radialGradient
       id="radialGradient3337-2-2"
       cx="4.993"
       cy="43.5"
       r="2.5"
       fx="4.993"
       fy="43.5"
       gradientTransform="matrix(3.2060543,0,0,0.99999998,37.981006,16.000001)"
       gradientUnits="userSpaceOnUse"
       xlink:href="#linearGradient3688-166-749-4-0-3-8" />
    <linearGradient
       id="linearGradient3688-166-749-4-0-3-8">
      <stop
         style="stop-color:#181818;stop-opacity:1"
         offset="0"
         id="stop23" />
      <stop
         style="stop-color:#181818;stop-opacity:0"
         offset="1"
         id="stop25" />
    </linearGradient>
    <radialGradient
       id="radialGradient3339-1-4"
       cx="4.993"
       cy="43.5"
       r="2.5"
       fx="4.993"
       fy="43.5"
       gradientTransform="matrix(3.2060543,0,0,0.99999998,-26.018992,-103)"
       gradientUnits="userSpaceOnUse"
       xlink:href="#linearGradient3688-464-309-9-2-4-2" />
    <linearGradient
       id="linearGradient3688-464-309-9-2-4-2">
      <stop
         style="stop-color:#181818;stop-opacity:1"
         offset="0"
         id="stop29" />
      <stop
         style="stop-color:#181818;stop-opacity:0"
         offset="1"
         id="stop31" />
    </linearGradient>
    <linearGradient
       id="linearGradient3702-501-757-8-4-1-1">
      <stop
         style="stop-color:#181818;stop-opacity:0"
         offset="0"
         id="stop34" />
      <stop
         style="stop-color:#181818;stop-opacity:1"
         offset=".5"
         id="stop36" />
      <stop
         style="stop-color:#181818;stop-opacity:0"
         offset="1"
         id="stop38" />
    </linearGradient>
    <linearGradient
       id="linearGradient6394"
       x1="25.058"
       x2="25.058"
       y1="47.028"
       y2="39.999"
       gradientUnits="userSpaceOnUse"
       xlink:href="#linearGradient3702-501-757-8-4-1-1"
       gradientTransform="matrix(1.5714286,0,0,0.7142857,-5.7142853,28.428572)" />
    <linearGradient
       id="linearGradient4262"
       x1="31"
       x2="31"
       y1="59"
       y2="4.737"
       gradientUnits="userSpaceOnUse"
       xlink:href="#linearGradient4256" />
  </defs>
  <rect
     id="rect44"
     y="56.999992"
     x="54"
     height="5"
     width="8"
     style="fill:url(#radialGradient3337-2-2);fill-opacity:1;stroke:none;opacity:0.6" />
  <rect
     id="rect46"
     transform="scale(-1,-1)"
     y="-61.999992"
     x="-10"
     height="5"
     width="8"
     style="fill:url(#radialGradient3339-1-4);fill-opacity:1;stroke:none;opacity:0.6" />
  <rect
     id="rect48"
     y="56.999992"
     x="10"
     height="5"
     width="44"
     style="fill:url(#linearGradient6394);fill-opacity:1;stroke:none;opacity:0.6" />
  <rect
     style="color:#000000;display:inline;overflow:visible;visibility:visible;fill:url(#linearGradient4262);fill-opacity:1;fill-rule:nonzero;stroke:none;stroke-width:0.99999994;marker:none;enable-background:accumulate"
     width="55"
     height="55"
     x="4.5"
     y="4.5"
     rx="3"
     ry="3"
     id="rect50" />
  <path
     style="color:#000000;font-style:normal;font-variant:normal;font-weight:normal;font-stretch:normal;font-size:medium;line-height:normal;font-family:sans-serif;text-indent:0;text-align:start;text-decoration:none;text-decoration-line:none;text-decoration-style:solid;text-decoration-color:#000000;letter-spacing:normal;word-spacing:normal;text-transform:none;direction:ltr;block-progression:tb;writing-mode:lr-tb;baseline-shift:baseline;text-anchor:start;white-space:normal;clip-rule:nonzero;display:inline;overflow:visible;visibility:visible;opacity:0.15;isolation:auto;mix-blend-mode:normal;color-interpolation:sRGB;color-interpolation-filters:linearRGB;solid-color:#000000;solid-opacity:1;fill:#000000;fill-opacity:1;fill-rule:evenodd;stroke:none;stroke-width:2;stroke-linecap:butt;stroke-linejoin:round;stroke-miterlimit:4;stroke-dasharray:none;stroke-dashoffset:0;stroke-opacity:1;color-rendering:auto;image-rendering:auto;shape-rendering:auto;text-rendering:auto;enable-background:accumulate"
     d="M 32 8 C 22.542678 8 17.01237 12.828471 14.480469 17.591797 C 11.967919 22.318718 11.999934 26.988801 12 26.998047 L 12 27 L 12 27.003906 L 12 31 L 11.5 31 C 10.6835 31.000082 10.000082 31.6835 10 32.5 L 10 39.5 C 10.000082 40.3165 10.6835 40.999918 11.5 41 L 13.417969 41 L 14.076172 42.974609 C 14.27934 43.583587 14.858026 44.000335 15.5 44 L 17.417969 44 L 18.076172 45.974609 C 18.27934 46.583587 18.858026 47.000335 19.5 47 L 24.5 47 C 25.3165 46.999918 25.999918 46.3165 26 45.5 L 26 28.5 C 25.999918 27.6835 25.3165 27.000082 24.5 27 L 19.5 27 A 1.0001 1.0001 0 0 0 19.498047 27 C 18.815558 27.0011 18.210263 27.47456 18.044922 28.136719 L 18 28.316406 L 18 27.007812 L 18 27 C 17.9989 27.150353 18.04342 23.670266 19.777344 20.408203 C 21.536818 17.098064 24.422823 14 32 14 C 39.577196 14 42.463186 17.098064 44.222656 20.408203 C 45.959897 23.676524 46.001144 27.155119 46 27.007812 L 46 28.316406 L 45.955078 28.136719 C 45.789735 27.47456 45.184442 27.001063 44.501953 27 A 1.0001 1.0001 0 0 0 44.5 27 L 39.5 27 C 38.6835 27.000082 38.000082 27.6835 38 28.5 L 38 45.5 C 38.000082 46.3165 38.6835 46.999918 39.5 47 L 44.5 47 C 45.141974 47.000335 45.72066 46.583587 45.923828 45.974609 L 46.582031 44 L 48.5 44 C 49.141974 44.000335 49.72066 43.583587 49.923828 42.974609 L 50.582031 41 L 52.5 41 C 53.3165 40.999918 53.999918 40.3165 54 39.5 L 54 32.5 C 53.999918 31.6835 53.3165 31.000082 52.5 31 L 52 31 L 52 27.003906 L 52 27 C 52.000045 26.9938 52.03291 22.320279 49.519531 17.591797 C 46.987635 12.82862 41.457345 8 32 8 z"
     id="path52" />
  <path
     style="color:#000000;font-style:normal;font-variant:normal;font-weight:normal;font-stretch:normal;font-size:medium;line-height:normal;font-family:sans-serif;text-indent:0;text-align:start;text-decoration:none;text-decoration-line:none;text-decoration-style:solid;text-decoration-color:#000000;letter-spacing:normal;word-spacing:normal;text-transform:none;direction:ltr;block-progression:tb;writing-mode:lr-tb;baseline-shift:baseline;text-anchor:start;white-space:normal;clip-rule:nonzero;display:inline;overflow:visible;visibility:visible;opacity:0.3;isolation:auto;mix-blend-mode:normal;color-interpolation:sRGB;color-interpolation-filters:linearRGB;solid-color:#000000;solid-opacity:1;fill:#000000;fill-opacity:1;fill-rule:evenodd;stroke:none;stroke-width:1px;stroke-linecap:butt;stroke-linejoin:round;stroke-miterlimit:4;stroke-dasharray:none;stroke-dashoffset:0;stroke-opacity:1;color-rendering:auto;image-rendering:auto;shape-rendering:auto;text-rendering:auto;enable-background:accumulate"
     d="m 32,8.9999999 c -9.123144,0 -14.251477,4.5731351 -16.636719,9.0605471 C 12.97804,22.547959 13,26.998047 13,26.998047 A 2.0002,2.0002 0 0 0 13,27 l 0,5 -1.5,0 A 0.50005,0.50005 0 0 0 11,32.5 l 0,7 a 0.50005,0.50005 0 0 0 0.5,0.5 l 2.638672,0 0.886719,2.658203 A 0.50005,0.50005 0 0 0 15.5,43 l 2.638672,0 0.886719,2.658203 A 0.50005,0.50005 0 0 0 19.5,46 l 5,0 A 0.50005,0.50005 0 0 0 25,45.5 l 0,-17 A 0.50005,0.50005 0 0 0 24.5,28 l -5,0 a 0.50005,0.50005 0 0 0 -0.484375,0.378906 L 18.109375,32 17,32 17,27.001953 17,27 c 2.4e-5,-0.0031 0.02826,-3.549488 1.894531,-7.060547 C 20.761615,16.426865 24.132444,13 32,13 39.867575,13 43.23839,16.426866 45.105469,19.939453 46.971734,23.45051 46.999976,26.99691 47,27 l 0,5 -1.109375,0 -0.90625,-3.621094 A 0.50005,0.50005 0 0 0 44.5,28 l -5,0 A 0.50005,0.50005 0 0 0 39,28.5 l 0,17 a 0.50005,0.50005 0 0 0 0.5,0.5 l 5,0 a 0.50005,0.50005 0 0 0 0.474609,-0.341797 L 45.861328,43 48.5,43 a 0.50005,0.50005 0 0 0 0.474609,-0.341797 L 49.861328,40 52.5,40 A 0.50005,0.50005 0 0 0 53,39.5 l 0,-7 A 0.50005,0.50005 0 0 0 52.5,32 l -1.5,0 0,-5 a 2.0002,2.0002 0 0 0 0,-0.002 c 0,0 0.02196,-4.450087 -2.363281,-8.9375 C 46.251481,13.573227 41.123161,8.9999999 32,8.9999999 Z"
     id="path54" />
  <rect
     style="opacity:0.5;fill:none;stroke:url(#linearGradient3381-5-4);stroke-width:1;stroke-linecap:round;stroke-linejoin:round;stroke-miterlimit:4;stroke-dasharray:none;stroke-dashoffset:0;stroke-opacity:1"
     width="53"
     height="53.142"
     x="5.5"
     y="5.43"
     rx="2"
     ry="2"
     id="rect56" />
  <rect
     style="color:#000000;display:inline;overflow:visible;visibility:visible;opacity:0.4;fill:none;stroke:#003464;stroke-width:1;stroke-linecap:round;stroke-linejoin:round;stroke-miterlimit:4;stroke-dasharray:none;stroke-dashoffset:0;stroke-opacity:1;marker:none;enable-background:accumulate"
     width="55"
     height="55"
     x="4.5"
     y="4.5"
     rx="3"
     ry="3"
     id="rect58" />
  <rect
     style="opacity:0.9;fill:#ffffff;fill-opacity:1;stroke:#ffffff;stroke-width:0;stroke-linecap:round;stroke-linejoin:miter;stroke-miterlimit:4;stroke-dasharray:none;stroke-opacity:1"
     width="6"
     height="4"
     x="22"
     y="52"
     rx="0"
     ry="0"
     id="rect60" />
  <rect
     style="opacity:0.65;fill:#ffffff;fill-opacity:1;stroke:#ffffff;stroke-width:0;stroke-linecap:round;stroke-linejoin:miter;stroke-miterlimit:4;stroke-dasharray:none;stroke-opacity:1"
     width="6"
     height="4"
     x="22"
     y="47"
     rx="0"
     ry="0"
     id="rect62" />
  <rect
     style="opacity:0.9;fill:#ffffff;fill-opacity:1;stroke:#ffffff;stroke-width:0;stroke-linecap:round;stroke-linejoin:miter;stroke-miterlimit:4;stroke-dasharray:none;stroke-opacity:1"
     width="6"
     height="4"
     x="15"
     y="52"
     rx="0"
     ry="0"
     id="rect64" />
  <rect
     width="6"
     height="4"
     x="8"
     y="52"
     rx="0"
     ry="0"
     style="opacity:0.9;fill:#ffffff;fill-opacity:1;stroke:#ffffff;stroke-width:0;stroke-linecap:round;stroke-linejoin:miter;stroke-miterlimit:4;stroke-dasharray:none;stroke-opacity:1"
     id="rect66" />
  <rect
     style="opacity:0.65;fill:#ffffff;fill-opacity:1;stroke:#ffffff;stroke-width:0;stroke-linecap:round;stroke-linejoin:miter;stroke-miterlimit:4;stroke-dasharray:none;stroke-opacity:1"
     width="6"
     height="4"
     x="8"
     y="47"
     rx="0"
     ry="0"
     id="rect68" />
  <rect
     style="opacity:0.9;fill:#ffffff;fill-opacity:1;stroke:#ffffff;stroke-width:0;stroke-linecap:round;stroke-linejoin:miter;stroke-miterlimit:4;stroke-dasharray:none;stroke-opacity:1"
     width="6"
     height="4"
     x="29"
     y="52"
     rx="0"
     ry="0"
     id="rect70" />
  <rect
     style="opacity:0.65;fill:#ffffff;fill-opacity:1;stroke:#ffffff;stroke-width:0;stroke-linecap:round;stroke-linejoin:miter;stroke-miterlimit:4;stroke-dasharray:none;stroke-opacity:1"
     width="6"
     height="4"
     x="29"
     y="47"
     rx="0"
     ry="0"
     id="rect72" />
  <rect
     width="6"
     height="4"
     x="29"
     y="42"
     rx="0"
     ry="0"
     style="opacity:0.4;fill:#ffffff;fill-opacity:1;stroke:#ffffff;stroke-width:0;stroke-linecap:round;stroke-linejoin:miter;stroke-miterlimit:4;stroke-dasharray:none;stroke-opacity:1"
     id="rect74" />
  <rect
     style="opacity:0.9;fill:#ffffff;fill-opacity:1;stroke:#ffffff;stroke-width:0;stroke-linecap:round;stroke-linejoin:miter;stroke-miterlimit:4;stroke-dasharray:none;stroke-opacity:1"
     width="6"
     height="4"
     x="36"
     y="52"
     rx="0"
     ry="0"
     id="rect76" />
  <rect
     style="opacity:0.9;fill:#ffffff;fill-opacity:1;stroke:#ffffff;stroke-width:0;stroke-linecap:round;stroke-linejoin:miter;stroke-miterlimit:4;stroke-dasharray:none;stroke-opacity:1"
     width="6"
     height="4"
     x="43"
     y="52"
     rx="0"
     ry="0"
     id="rect78" />
  <rect
     width="6"
     height="4"
     x="50"
     y="52"
     rx="0"
     ry="0"
     style="opacity:0.9;fill:#ffffff;fill-opacity:1;stroke:#ffffff;stroke-width:0;stroke-linecap:round;stroke-linejoin:miter;stroke-miterlimit:4;stroke-dasharray:none;stroke-opacity:1"
     id="rect80" />
  <rect
     width="6"
     height="4"
     x="50"
     y="47"
     rx="0"
     ry="0"
     style="opacity:0.65;fill:#ffffff;fill-opacity:1;stroke:#ffffff;stroke-width:0;stroke-linecap:round;stroke-linejoin:miter;stroke-miterlimit:4;stroke-dasharray:none;stroke-opacity:1"
     id="rect82" />
  <rect
     style="opacity:0.4;fill:#ffffff;fill-opacity:1;stroke:#ffffff;stroke-width:0;stroke-linecap:round;stroke-linejoin:miter;stroke-miterlimit:4;stroke-dasharray:none;stroke-opacity:1"
     width="6"
     height="4"
     x="50"
     y="42"
     rx="0"
     ry="0"
     id="rect84" />
  <rect
     width="6"
     height="4"
     x="36"
     y="47"
     rx="0"
     ry="0"
     style="opacity:0.65;fill:#ffffff;fill-opacity:1;stroke:#ffffff;stroke-width:0;stroke-linecap:round;stroke-linejoin:miter;stroke-miterlimit:4;stroke-dasharray:none;stroke-opacity:1"
     id="rect86" />
  <path
     style="fill:#ffffff;fill-opacity:1;fill-rule:evenodd;stroke:#ffffff;stroke-width:1px;stroke-linecap:butt;stroke-linejoin:round;stroke-opacity:1"
     d="m 11.499998,31.49999 0,7 3,0 1,3 3,0 1,3 5,0 0,-17 -5,0 -1,4 z"
     id="path88" />
  <path
     d="m 52.499998,31.49999 0,7 -3,0 -1,3 -3,0 -1,3 -5,0 0,-17 5,0 1,4 z"
     style="fill:#ffffff;fill-opacity:1;fill-rule:evenodd;stroke:#ffffff;stroke-width:1px;stroke-linecap:butt;stroke-linejoin:round;stroke-opacity:1"
     id="path90" />
  <path
     style="fill:none;fill-rule:evenodd;stroke:#ffffff;stroke-width:4;stroke-linecap:round;stroke-linejoin:round;stroke-miterlimit:4;stroke-dasharray:none;stroke-opacity:1"
     d="m 14.999998,30.99999 0,-5 c 0,0 0.0093,-16.0000004 17,-16.0000004 16.990736,0 17,16.0000004 17,16.0000004 l 0,5"
     id="path92" />
</svg>
